<?xml version="1.0" encoding="UTF-8" standalone="no"?>
<!-- Created with Inkscape (http://www.inkscape.org/) -->

<svg
   width="43.913502"
   height="27.343206"
   viewBox="0 0 43.913502 27.343206"
   version="1.1"
   id="fx"
   inkscape:version="1.3 (0e150ed, 2023-07-21)"
   sodipodi:docname="fx.svg"
   xmlns="http://www.w3.org/2000/svg"
   xmlns:svg="http://www.w3.org/2000/svg">
  <defs
     id="defs1" />
  <g
     id="layer1"
     transform="translate(-2.1812472,-8.7567939)">
    <g
       id="text2">
      <path
         id="path4"
         style="fill:#000000;fill-opacity:1.0;stroke:#000000;stroke-width:1"
         d="m 14.513672,8.7558594 c -2.890135,0 -4.864171,0.5948809 -5.904297,1.8183596 -0.9111894,0.826748 -1.5820809,2.30772 -2.0332031,4.441406 l -0.2558594,1.197266 h -2.84375 L 2.6503906,20.076172 H 5.5488281 L 2.1582031,36.099609 H 7.5390625 L 10.929688,20.076172 h 3.408203 l 0.828125,-3.863281 h -0.125 -3.285157 c 0.14172,-0.653839 0.260929,-1.195887 0.339844,-1.556641 v -0.002 c 0.06881,-0.367006 0.256241,-0.699586 0.572266,-1.003906 0.31541,-0.304147 0.795065,-0.451447 1.458984,-0.427735 h 0.002 c 0.679014,0.01213 1.15713,0.03697 1.427735,0.07227 l 0.0918,0.01172 L 16.603516,8.875 16.490234,8.8671875 C 16.030246,8.8308723 15.667305,8.805272 15.398438,8.7929688 h -0.0059 C 15.134592,8.7686069 14.84208,8.7558594 14.513672,8.7558594 Z m 0,0.2011719 c 0.325655,0 0.614053,0.011234 0.865234,0.035156 h 0.002 0.002 c 0.237422,0.010792 0.582461,0.036139 0.976562,0.066406 l -0.869141,4.0332037 c -0.293065,-0.03355 -0.71937,-0.05892 -1.357421,-0.07031 v 0.002 c -0.697189,-0.0249 -1.238372,0.130317 -1.603516,0.482421 -0.340224,0.327623 -0.55384,0.700557 -0.630859,1.111329 -0.08507,0.388887 -0.205678,0.946425 -0.363282,1.673827 l -0.02539,0.121093 h 3.408203 l -0.740235,3.464844 H 10.767578 L 7.3769531,35.900391 H 2.4042969 L 5.7949219,19.876953 H 2.8964844 l 0.7421875,-3.464844 h 2.84375 l 0.2890625,-1.355468 c 0.447425,-2.1162 1.1138384,-3.561613 1.9746094,-4.339844 l 0.00586,-0.0039 0.00391,-0.0059 C 9.7342006,9.5518813 11.647252,8.9570313 14.513672,8.9570313 Z m 1.740234,7.1093747 4.449219,9.853516 -9.019531,10.179687 h 6.578125 l 0.03125,-0.03711 4.591797,-5.818359 2.130859,5.855468 h 6.697266 L 27.044922,25.86328 35.736328,16.066405 h -6.451172 l -4.386719,5.65625 -2.05664,-5.65625 z m 0.310547,0.201172 h 6.136719 l 2.134765,5.863281 4.546875,-5.863281 h 5.90625 l -8.480468,9.560547 4.59375,10.072266 H 25.15625 l -2.207031,-6.064454 -4.785157,6.064454 H 12.126953 L 20.9375,25.955078 Z m 23.826172,0.546875 -1.191406,5.632813 h 0.123047 5.605468 l 1.189453,-5.632813 z m 0.162109,0.199219 h 5.31836 l -1.105469,5.232422 h -5.320313 z m -3.060547,13.453125 -0.01758,0.08008 -1.173828,5.552734 h 5.728516 l 1.189453,-5.632812 z m 0.160157,0.201172 h 5.320312 l -1.105469,5.232422 H 36.546875 Z M 15.041653,16.312517 14.2578,19.976576 H 10.848948 L 7.4583261,36 H 2.2812472 L 5.6718693,19.976576 h -2.898435 l 0.7838535,-3.664059 h 2.8437476 l 0.2734372,-1.276041 q 0.6744786,-3.190101 2.0052067,-4.393225 1.5130197,-1.7864571 5.8333287,-1.7864571 0.492187,0 0.874999,0.036458 0.401041,0.018229 1.093749,0.072917 l -0.911458,4.2291631 q -0.41927,-0.05469 -1.440103,-0.07292 -1.020832,-0.03646 -1.531248,0.455729 -0.492187,0.473958 -0.601562,1.057291 -0.127604,0.583333 -0.364583,1.677082 z M 18.213526,36 H 11.906239 L 20.820294,25.937509 16.40884,16.166684 h 6.361974 l 2.096352,5.760411 4.466142,-5.760411 H 35.51299 L 26.92706,25.846363 31.557264,36 H 25.085916 L 22.916647,30.039068 Z M 39.32288,22.346366 40.471317,16.914079 h 5.523432 l -1.148436,5.432287 z m -1.749998,8.221347 h 5.523432 L 41.947878,36 h -5.523433 z" />
    </g>
  </g>
</svg>
