<?xml version="1.0" encoding="UTF-8" standalone="no"?>

<svg
   width="48"
   height="48"
   viewBox="0 0 48 48"
   version="1.1"
   id="workpad_no_sheets"
   xmlns="http://www.w3.org/2000/svg"
   xmlns:svg="http://www.w3.org/2000/svg">
  <defs
     id="defs1" />
  <g id="layer1">
    <path
       id="border-top"
       style="fill:#000000;fill-opacity:1.0;stroke:#000000;stroke-width:1"
       d="M 1,1 H 46 V 4 H 1 Z" />
    <path
       id="border-right"
       style="fill:#000000;fill-opacity:1.0;stroke:#000000;stroke-width:1"
       d="M 46,1 V 46 H 43 V 1 Z" />
    <path
       id="border-bottom"
       style="fill:#000000;fill-opacity:1.0;stroke:#000000;stroke-width:1"
       d="M 46,46 H 1 V 43 H 46 Z" />
    <path
       id="border-left"
       style="fill:#000000;fill-opacity:1.0;stroke:#000000;stroke-width:1"
       d="M 1,46 V 1 H 4 V 46 Z" />
    <path
       d="m 36.576,36.736001 c -0.448,-0.832 -0.832,-1.728 -1.632,-3.776 l -7.104,-18.464 c -0.736,-1.952 -0.928,-2.464 -1.088,-3.232 h -5.568 c -0.16,0.832 -0.416,1.632 -1.024,3.232 l -7.04,18.464 c -0.576,1.472 -1.216,2.912 -1.696,3.776 h 5.248 c 0.256,-1.344 0.384,-1.824 0.96,-3.36 l 1.28,-3.488 h 10.24 l 1.28,3.488 c 0.352,0.928 0.704,2.304 0.896,3.36 z M 28,26.208001 h -7.936 l 3.328,-9.472 c 0.096,-0.288 0.096,-0.288 0.608,-1.792 0.352,1.056 0.448,1.44 0.576,1.792 z"
       id="A"
       style="fill:#000000;fill-opacity:1.0;stroke:#000000;stroke-width:1"/>
  </g>
</svg>
