<?xml version="1.0" encoding="UTF-8" standalone="no"?>

<svg
   width="48"
   height="48"
   viewBox="0 0 48 48"
   version="1.1"
   id="workpad_no_sheets"
   xmlns="http://www.w3.org/2000/svg"
   xmlns:svg="http://www.w3.org/2000/svg">
  <defs
     id="defs1" />
  <g id="layer1">
    <path
       id="border-top"
       style="fill:#000000;fill-opacity:1.0;stroke:#000000;stroke-width:1"
       d="M 1,1 H 46 V 4 H 1 Z" />
    <path
       id="broder-right"
       style="fill:#000000;fill-opacity:1.0;stroke:#000000;stroke-width:1"
       d="M 46,1 V 46 H 43 V 1 Z" />
    <path
       id="border-bottom"
       style="fill:#000000;fill-opacity:1.0;stroke:#000000;stroke-width:1"
       d="M 46,46 H 1 V 43 H 46 Z" />
    <path
       id="border-left"
       style="fill:#000000;fill-opacity:1.0;stroke:#000000;stroke-width:1"
       d="M 1,46 V 1 H 4 V 46 Z" />
    <path
       id="sheet1-top"
       style="fill:#000000;fill-opacity:1.0;stroke:#000000;stroke-width:1"
       d="M 19,19 H 40 V 20 H 19 Z" />
    <path
       id="sheet1-right"
       style="fill:#000000;fill-opacity:1.0;stroke:#000000;stroke-width:1"
       d="M 40,19 V 40 H 39 V 19 Z" />
    <path
       id="sheet1-bottom"
       style="fill:#000000;fill-opacity:1.0;stroke:#000000;stroke-width:1"
       d="M 40,40 H 19 V 39 H 40 Z" />
    <path
       id="sheet1-left"
       style="fill:#000000;fill-opacity:1.0;stroke:#000000;stroke-width:1"
       d="M 19,40 V 19 H 20 V 40 Z" />
    <path
       id="sheet2-top"
       style="fill:#000000;fill-opacity:1.0;stroke:#000000;stroke-width:1"
       d="M 13,13 H 34 V 14 H 13 Z" />
    <path
       id="sheet2-right"
       style="fill:#000000;fill-opacity:1.0;stroke:#000000;stroke-width:1"
       d="M 34,13 V 19 H 33 V 13 Z" />
    <path
       id="sheet2-bottom"
       style="fill:#000000;fill-opacity:1.0;stroke:#000000;stroke-width:1"
       d="M 19,34 H 13 V 33 H 19 Z" />
    <path
       id="sheet2-left"
       style="fill:#000000;fill-opacity:1.0;stroke:#000000;stroke-width:1"
       d="M 13,34 V 13 H 14 V 34 Z" />
    <path
       id="sheet3-top"
       style="fill:#000000;fill-opacity:1.0;stroke:#000000;stroke-width:1"
       d="M 7,7 H 28 V 8 H 7 Z" />
    <path
       id="sheet3-right"
       style="fill:#000000;fill-opacity:1.0;stroke:#000000;stroke-width:1"
       d="M 28,7 V 13 H 27 V 7 Z" />
    <path
       id="sheet3-bottom"
       style="fill:#000000;fill-opacity:1.0;stroke:#000000;stroke-width:1"
       d="M 13,28 H 7 V 27 H 13 Z" />
    <path
       id="sheet3-left"
       style="fill:#000000;fill-opacity:1.0;stroke:#000000;stroke-width:1"
       d="M 7,28 V 7 H 8 V 28 Z" />
  </g>
</svg>
